PathFileType	4	(X/Y/Z)	./resultDataOpenSim/trcMotMarkerGrf/sub06/qtm-02-02.trc
DataRate	CameraRate	NumFrames	NumMarkers	Units	OrigDataRate	OrigDataStartFrame	OrigNumFrames
250.000000	250.000000	12	24	m	250.000000	363	483
Frame#	Time	L.Toe.Tip			R.Toe.Tip			L.Ankle.Lat			R.Ankle.Lat			L.Ankle.Med			R.Ankle.Med			L.Heel			R.Heel			L.Knee.Lat			R.Knee.Lat			L.Knee.Med			R.Knee.Med			L.Thigh.Upper			R.Thigh.Upper			L.ASIS			R.ASIS			V.Sacral			L.Acromium			R.Acromium			C7			L.Elbow			R.Elbow			L.Wrist.Lat			R.Wrist.Lat
		X1	Y1	Z1	X2	Y2	Z2	X3	Y3	Z3	X4	Y4	Z4	X5	Y5	Z5	X6	Y6	Z6	X7	Y7	Z7	X8	Y8	Z8	X9	Y9	Z9	X10	Y10	Z10	X11	Y11	Z11	X12	Y12	Z12	X13	Y13	Z13	X14	Y14	Z14	X15	Y15	Z15	X16	Y16	Z16	X17	Y17	Z17	X18	Y18	Z18	X19	Y19	Z19	X20	Y20	Z20	X21	Y21	Z21	X22	Y22	Z22	X23	Y23	Z23	X24	Y24	Z24

363	1.448	1.3501169	0.078587726	-0.068161584	0.89746948	0.035112024	0.095575211	1.2256921	0.10143751	-0.083862531	0.7637452	0.07646063	0.111134	1.2327662	0.11629722	0.00020470641	0.79587311	0.098644776	0.027542084	1.1572766	0.064801689	-0.037388131	0.71266602	0.064032894	0.046963747	1.2481627	0.48122196	-0.082010064	0.90602722	0.44277541	0.15450884	1.2373515	0.46998261	0.037229733	0.88641831	0.44286042	0.023581198	1.0473763	0.81746783	-0.12417443	0.97779641	0.80183846	0.21855199	1.1049042	0.86271294	-0.067209406	1.083738	0.85457764	0.18067635	0.90911016	0.92960743	0.043619764	1.0213035	1.3449394	-0.12679203	1.0394051	1.329359	0.23021284	0.95777996	1.3719084	0.057119805	0.90984379	1.0525752	-0.18654306	1.043059	1.0156082	0.33541315	0.99660243	0.83292432	-0.24359424	1.2904502	0.98351962	0.29357956
364	1.452	1.369478	0.081011403	-0.066090743	0.89754161	0.035093995	0.095530935	1.2442777	0.099667557	-0.082245616	0.76411209	0.077024117	0.11095312	1.2506542	0.11485635	0.0018713955	0.79617469	0.098975091	0.027374113	1.1770568	0.060786127	-0.035462365	0.71292925	0.064864944	0.046774562	1.2542409	0.47950547	-0.081466352	0.90981594	0.44221893	0.15426956	1.243453	0.4681951	0.037902415	0.89003547	0.44230827	0.023390728	1.0543581	0.81590272	-0.12413163	0.98326101	0.80049454	0.21839857	1.1118648	0.86104247	-0.067159036	1.0900118	0.85291116	0.18084819	0.91590117	0.92821611	0.042749033	1.0276048	1.3433125	-0.12687124	1.0454486	1.3280284	0.23019453	0.96394469	1.3704918	0.057007423	0.91514584	1.0516741	-0.18610558	1.0515992	1.0145765	0.33621956	0.99887763	0.83135759	-0.24458916	1.2987305	0.98525903	0.29261711
365	1.456	1.3885288	0.083620243	-0.064017996	0.89761869	0.03508288	0.095495696	1.2626501	0.098265113	-0.080616169	0.76451216	0.077624597	0.11079364	1.2688269	0.11380077	0.0035461361	0.79640918	0.099381619	0.027222888	1.1967021	0.0571915	-0.033317282	0.71319407	0.065759614	0.046624613	1.2601913	0.47763161	-0.080912702	0.91363542	0.44164129	0.1540539	1.2494818	0.46629528	0.038600532	0.89369223	0.4417917	0.023220907	1.0613308	0.81432579	-0.12408336	0.98877021	0.79914186	0.21821909	1.118854	0.8593317	-0.067089468	1.0963619	0.85119479	0.18097609	0.92267186	0.92678376	0.041981859	1.0339434	1.3416455	-0.12697066	1.0515081	1.3266684	0.23016625	0.97012917	1.3690511	0.056872304	0.92052961	1.0507141	-0.18569598	1.0601422	1.0135378	0.33704258	1.0012323	0.82978137	-0.24555771	1.306926	0.986872	0.29168988
366	1.46	1.4072105	0.086376402	-0.061962892	0.89769131	0.035076953	0.095468236	1.2807588	0.097207335	-0.078990644	0.76492037	0.078257015	0.11066287	1.2866954	0.11301502	0.0051875407	0.79662816	0.099862481	0.027082983	1.2161265	0.054085134	-0.031165156	0.71347505	0.06671681	0.046520743	1.2660617	0.47560038	-0.080303924	0.91730502	0.44101692	0.1539182	1.2554577	0.46429905	0.039340842	0.89736538	0.44130096	0.023106103	1.0683249	0.81274014	-0.12404705	0.99430884	0.7977816	0.217995	1.1258748	0.85758905	-0.066999837	1.1026912	0.84944944	0.18110512	0.92937752	0.92532765	0.041391795	1.0403146	1.3399439	-0.12709994	1.057581	1.3252837	0.23012526	0.9763316	1.3675888	0.056712042	0.92600058	1.049692	-0.18532362	1.0685208	1.0124318	0.33771287	1.0036911	0.82819964	-0.24650344	1.3150434	0.98835749	0.2908014
367	1.464	1.4254435	0.08926096	-0.059960083	0.89775199	0.035070671	0.095440183	1.2985327	0.096460528	-0.077394967	0.76530945	0.078918339	0.11057507	1.3038388	0.11250158	0.0066516039	0.7969075	0.10039099	0.026950215	1.2352234	0.0514878	-0.029194105	0.71378462	0.067733039	0.04645702	1.2719124	0.47343461	-0.07963178	0.92073412	0.44035569	0.15388724	1.2614155	0.46223112	0.04013476	0.90105951	0.44082515	0.023049168	1.0753656	0.81113871	-0.12402867	0.99986653	0.79641424	0.217709	1.1329329	0.85581924	-0.066882513	1.1089887	0.84768614	0.18124025	0.93605637	0.92385807	0.040995205	1.0467198	1.3382155	-0.12726144	1.0636645	1.3238783	0.23006756	0.98255302	1.3660976	0.056524071	0.93155467	1.048613	-0.1849932	1.0766359	1.0112248	0.33813569	1.0062727	0.82661582	-0.24743104	1.3230791	0.98971854	0.28994934
368	1.468	1.4431421	0.092280743	-0.058048674	0.89780248	0.035060061	0.095405758	1.3158818	0.095987865	-0.075857321	0.7656931	0.079610352	0.11054585	1.3202874	0.11232913	0.007878993	0.79731658	0.10092245	0.026842665	1.2538865	0.049355914	-0.027466654	0.71413265	0.06880354	0.046417609	1.2777866	0.47118368	-0.078928403	0.92394706	0.43967576	0.15395811	1.2673889	0.46011518	0.040987643	0.90480885	0.44035438	0.023025473	1.082456	0.80951345	-0.12401492	1.0054472	0.7950395	0.2173647	1.1400332	0.85402256	-0.066735056	1.1153011	0.84591041	0.18136701	0.94275491	0.92237703	0.040716525	1.0531638	1.3364647	-0.12744889	1.069759	1.3224552	0.22999138	0.98879499	1.3645758	0.056303155	0.93718044	1.0474969	-0.18468704	1.084505	1.0099285	0.33833867	1.0089787	0.82502917	-0.24834244	1.33102	0.99095751	0.28912855
369	1.472	1.4602288	0.095461262	-0.056258508	0.89785	0.035045051	0.09536884	1.3327187	0.095760097	-0.074388002	0.76614046	0.080321658	0.1105803	1.3363007	0.1124923	0.0089840907	0.79786724	0.10143259	0.026796535	1.272042	0.047634419	-0.026022027	0.71451721	0.069933242	0.04640615	1.2837111	0.46890019	-0.078228891	0.92695694	0.43896482	0.15414023	1.2733918	0.4579669	0.041898031	0.90865117	0.43987814	0.023011167	1.0895823	0.80786149	-0.12398948	1.0110785	0.79365511	0.21700324	1.1471805	0.85220057	-0.066567193	1.1216463	0.84411632	0.18149534	0.94944926	0.92087763	0.040391975	1.0596492	1.3346926	-0.12765764	1.0758664	1.3210171	0.22989715	0.99505987	1.3630361	0.056044462	0.94287532	1.04637	-0.18437307	1.0922397	1.008593	0.3384361	1.0118089	0.82344017	-0.24923858	1.3388642	0.99207303	0.28833583
370	1.476	1.4766454	0.098836882	-0.054624489	0.89789994	0.035026355	0.09533704	1.3489773	0.095756877	-0.072980529	0.76672023	0.081024405	0.11067124	1.3519833	0.1128901	0.010097796	0.79849939	0.10194694	0.026826259	1.2896596	0.046272694	-0.024854907	0.71492174	0.0711391	0.046456074	1.2896968	0.46661507	-0.077541545	0.92980669	0.43821634	0.15442615	1.2794215	0.45579868	0.042858718	0.91260668	0.43938872	0.022999739	1.096736	0.80618547	-0.12394889	1.016791	0.79225857	0.21667183	1.1543885	0.85035922	-0.066397941	1.1279579	0.84226497	0.18169036	0.9560951	0.91935524	0.039881479	1.0661784	1.3329028	-0.12789108	1.081986	1.3195663	0.22978519	1.0013514	1.3614914	0.055747979	0.94865962	1.0452512	-0.18403064	1.0999515	1.0072694	0.33853442	1.0147691	0.82185394	-0.25012045	1.3466235	0.99306267	0.28757344
371	1.48	1.4923493	0.10243184	-0.053221336	0.89795343	0.035004027	0.095313616	1.3646151	0.095958202	-0.071628847	0.76742017	0.081716881	0.11079395	1.3671943	0.11339736	0.011244039	0.79915311	0.1025056	0.026919939	1.3067211	0.045192206	-0.023794194	0.71533161	0.0724351	0.046600643	1.2957461	0.46434559	-0.076854757	0.93278199	0.4374777	0.15473084	1.285476	0.45362863	0.043861251	0.91667843	0.43888213	0.02299959	1.1039226	0.80449085	-0.12390053	1.0225867	0.79085071	0.21638066	1.161685	0.84850724	-0.066249689	1.1341119	0.84029417	0.18205207	0.96272439	0.91781858	0.039211175	1.072755	1.3311025	-0.12815425	1.0881161	1.3181063	0.2296557	1.0076743	1.3599389	0.055417703	0.95455135	1.0441385	-0.18367181	1.1076685	1.0059748	0.33866211	1.0178641	0.82027597	-0.25098773	1.3543042	0.99392868	0.28684718
372	1.484	1.5073047	0.10620155	-0.052111226	0.89801011	0.03497956	0.09529785	1.3796013	0.096334324	-0.070336767	0.76813443	0.082454317	0.11090328	1.3817478	0.11391865	0.012385625	0.7998412	0.10310854	0.027073449	1.3231835	0.044287036	-0.022553622	0.7157457	0.073824348	0.046854783	1.3018717	0.46211444	-0.076153676	0.93632321	0.43679712	0.15495395	1.2915634	0.45148267	0.044903786	0.92086328	0.43835361	0.023022436	1.1111541	0.80278086	-0.12385411	1.0284458	0.78943617	0.21611025	1.1690859	0.84665406	-0.066131432	1.1400697	0.8382098	0.18259019	0.96943763	0.91628039	0.038536705	1.0793778	1.3292976	-0.12844532	1.0942572	1.3166426	0.22950913	1.014032	1.3583652	0.055058208	0.96053082	1.0430056	-0.18334626	1.1153557	1.0047002	0.33879403	1.0211026	0.81871006	-0.25183809	1.3619026	0.99467693	0.28615962
373	1.488	1.5214761	0.10997657	-0.051249206	0.89807153	0.034955828	0.095289846	1.3939046	0.096835879	-0.069112009	0.76876224	0.08330486	0.11098034	1.3955776	0.1144128	0.013498318	0.80058362	0.10374739	0.027281507	1.3389753	0.043468904	-0.020939163	0.7161731	0.075308593	0.047223231	1.3080986	0.45994965	-0.075428099	0.94060363	0.43616387	0.15509136	1.2977087	0.44939092	0.045995823	0.92515968	0.43779956	0.02307646	1.1184406	0.80105725	-0.12381301	1.0343518	0.78802045	0.21583878	1.1765612	0.84480953	-0.066021347	1.1460195	0.83616304	0.18310159	0.9763136	0.91474352	0.037979462	1.0860409	1.3274904	-0.12875897	1.100414	1.3151835	0.22934508	1.0204231	1.3567667	0.054669371	0.96655945	1.0418219	-0.18310849	1.1229768	1.0034347	0.33890439	1.0245005	0.81715922	-0.25266922	1.3694142	0.99530632	0.28550583
374	1.492	1.534836	0.11352295	-0.050538336	0.89814038	0.034934063	0.095292382	1.4074943	0.097392459	-0.067952384	0.76932051	0.084283088	0.1110905	1.4087285	0.1149003	0.014592135	0.80133192	0.10445498	0.027519368	1.3539976	0.042715117	-0.019050197	0.71662754	0.076896374	0.047701891	1.3144532	0.45787603	-0.074674717	0.94531127	0.43554891	0.15521621	1.3039517	0.44738245	0.04715234	0.9295711	0.4372197	0.02316481	1.1257893	0.79932499	-0.12377501	1.0402971	0.78660713	0.21554988	1.1840551	0.84298593	-0.065881322	1.1522859	0.83433602	0.18329978	0.98335375	0.91320857	0.037538895	1.0927426	1.3256825	-0.12909715	1.1065967	1.3137383	0.22915841	1.0268387	1.3551632	0.054242458	0.9726256	1.0405811	-0.18297339	1.130517	1.0021749	0.33898219	1.0280735	0.81562382	-0.25348572	1.3768382	0.99580845	0.28487604
